<svg xmlns="http://www.w3.org/2000/svg" viewBox="0 0 900 400" width="100%" height="100%">
  <defs>
    <!-- Metallic & Base Gradients -->
    <linearGradient id="basePlateGrad" x1="0%" y1="0%" x2="100%" y2="100%">
      <stop offset="0%" stop-color="#E2E4E8" />
      <stop offset="100%" stop-color="#C5C8D0" />
    </linearGradient>

    <linearGradient id="ringGrad" x1="0%" y1="0%" x2="0%" y2="100%">
      <stop offset="0%" stop-color="#A5A9B2" />
      <stop offset="50%" stop-color="#7B8089" />
      <stop offset="100%" stop-color="#5B5F66" />
    </linearGradient>

    <linearGradient id="gimbalTop" x1="0%" y1="0%" x2="0%" y2="100%">
      <stop offset="0%" stop-color="#FFFFFF" />
      <stop offset="40%" stop-color="#E4E6EB" />
      <stop offset="100%" stop-color="#B8BAC0" />
    </linearGradient>

    <linearGradient id="metalArm" x1="0%" y1="0%" x2="0%" y2="100%">
      <stop offset="0%" stop-color="#FFFFFF" />
      <stop offset="25%" stop-color="#DDE0E6" />
      <stop offset="55%" stop-color="#8F949F" />
      <stop offset="85%" stop-color="#B8BAC2" />
      <stop offset="100%" stop-color="#686C74" />
    </linearGradient>

    <linearGradient id="metalArmAngled" x1="0%" y1="0%" x2="0%" y2="100%" gradientTransform="rotate(22)">
      <stop offset="0%" stop-color="#FFFFFF" />
      <stop offset="25%" stop-color="#DDE0E6" />
      <stop offset="55%" stop-color="#8F949F" />
      <stop offset="85%" stop-color="#B8BAC2" />
      <stop offset="100%" stop-color="#686C74" />
    </linearGradient>

    <linearGradient id="weightDark" x1="0%" y1="0%" x2="0%" y2="100%">
      <stop offset="0%" stop-color="#55585E" />
      <stop offset="50%" stop-color="#3A3C40" />
      <stop offset="100%" stop-color="#232426" />
    </linearGradient>

    <linearGradient id="weightSilver" x1="0%" y1="0%" x2="0%" y2="100%">
      <stop offset="0%" stop-color="#FFFFFF" />
      <stop offset="35%" stop-color="#D0D3D9" />
      <stop offset="70%" stop-color="#8E9299" />
      <stop offset="100%" stop-color="#5E6166" />
    </linearGradient>

    <linearGradient id="headshellGrad" x1="0%" y1="0%" x2="100%" y2="100%">
      <stop offset="0%" stop-color="#E1E4EA" />
      <stop offset="50%" stop-color="#C2C6CE" />
      <stop offset="100%" stop-color="#9CA0A8" />
    </linearGradient>

    <filter id="dropShadow" x="-10%" y="-10%" width="130%" height="130%">
      <feDropShadow dx="2" dy="4" stdDeviation="4" flood-color="#000000" flood-opacity="0.15" />
    </filter>
  </defs>

  <!-- BASE ASSEMBLY -->
  <g id="base-section" transform="translate(200, 200)">
    <!-- Main mounting flange -->
    <circle cx="0" cy="0" r="115" fill="url(#basePlateGrad)" />
    <circle cx="0" cy="0" r="115" fill="none" stroke="#FFFFFF" stroke-width="2" opacity="0.6" />

    <!-- Anti-skate / Sub-dial platform -->
    <g transform="translate(20, -45) rotate(15)">
      <rect x="-18" y="-40" width="36" height="50" rx="12" fill="#DDE0E5" stroke="#B0B4BD" stroke-width="1.5" />
      <circle cx="0" cy="-24" r="18" fill="url(#gimbalTop)" stroke="#9DA1AA" stroke-width="1.5" />
      <circle cx="0" cy="-24" r="10" fill="#E8EAEE" stroke="#B0B4BC" stroke-width="1" />
      <circle cx="0" cy="-24" r="2.5" fill="#5F636B" />
    </g>

    <!-- Cueing / Lift Arm Lever -->
    <g transform="translate(68, -45) rotate(25)">
      <rect x="-2" y="-42" width="4.5" height="42" rx="2" fill="#8E929A" stroke="#5E6168" stroke-width="0.5" />
      <!-- Lever handle / grip -->
      <rect x="-4.5" y="-46" width="9" height="20" rx="2.5" fill="url(#weightDark)" stroke="#1D1E20" stroke-width="0.8" />
      <line x1="-3" y1="-40" x2="3" y2="-40" stroke="#7A7E85" stroke-width="1" />
      <line x1="-3" y1="-36" x2="3" y2="-36" stroke="#7A7E85" stroke-width="1" />
      <line x1="-3" y1="-32" x2="3" y2="-32" stroke="#7A7E85" stroke-width="1" />
    </g>

    <!-- Arm Rest Bar & Guide (Curved support) -->
    <path d="M 42,-5 C 55,10 58,28 48,42 C 44,47 38,48 35,42 C 33,38 38,20 28,10 Z" fill="#2B2D31" />
    <circle cx="50" cy="18" r="8" fill="#B0B4BD" stroke="#80848D" stroke-width="1.5" />
    <circle cx="50" cy="18" r="4.5" fill="#E8EAEE" />

    <!-- Gimbal Outer Housing Ring -->
    <circle cx="0" cy="0" r="54" fill="url(#ringGrad)" stroke="#4A4D53" stroke-width="2" />
    <circle cx="0" cy="0" r="46" fill="#D3D6DC" stroke="#90949D" stroke-width="1.5" />

    <!-- Gimbal Pivot Center Cylinder -->
    <circle cx="0" cy="0" r="38" fill="url(#gimbalTop)" stroke="#8A8E96" stroke-width="1.5" />
    <circle cx="0" cy="0" r="34" fill="none" stroke="#FFFFFF" stroke-width="1.5" />
  </g>
</svg>
